<?xml version="1.0" encoding="UTF-8"?>
<svg id="Capa_1" xmlns="http://www.w3.org/2000/svg" version="1.1" viewBox="0 0 75 75">
  <!-- Generator: Adobe Illustrator 30.3.0, SVG Export Plug-In . SVG Version: 2.1.3 Build 182)  -->
  <defs>
    <style>
      .st0 {
        fill: #d2527f;
        stroke: #d2527f;
        stroke-linecap: round;
        stroke-linejoin: round;
        stroke-width: 1.8px;
      }

      .st1 {
        stroke-width: 1.1px;
      }

      .st1, .st2 {
        fill: #fbae1b;
        stroke: #fff;
        stroke-miterlimit: 10;
      }

      .st2 {
        stroke-width: .6px;
      }
    </style>
  </defs>
  <path class="st0" d="M29.06,30.67c-.36,3.31-1.38,5.85-3.05,7.61-1.67,1.76-3.72,2.64-6.15,2.64s-4.34-.91-5.88-2.74c-1.54-1.82-2.31-4.09-2.31-6.81,0-5.43,2.24-10.18,6.73-14.24,4.49-4.06,10.13-6.09,16.94-6.09,7.3,0,13.23,2.35,17.79,7.06,4.57,4.71,6.85,10.85,6.85,18.43s-2.13,13.73-6.4,18.9c-4.27,5.17-9.06,7.76-14.36,7.76-1.79,0-3.86-.72-6.21-2.17-2.33-1.47-4.33-2.21-6.02-2.21-2.2,0-4.29,1.46-6.29,4.39l-.93-.58c1.01-2.51,3.09-4.89,6.25-7.14,3.18-2.25,5.3-4.28,6.36-6.09,1.06-1.81,1.59-4.23,1.59-7.26,0-1.5-.13-3.54-.39-6.13-.26-2.59-.39-4.46-.39-5.63,0-3.21.61-5.81,1.82-7.8,1.22-1.99,3.17-3.58,5.86-4.77l.51.89c-2.77,1.97-4.15,4.7-4.15,8.19,0,1.14.23,3.17.68,6.09.48,2.9.72,5.15.72,6.75,0,3.26-.82,6.12-2.47,8.58-1.65,2.46-4.55,5.01-8.7,7.64l1.9-.08c2.95,0,5.52.69,7.72,2.06,2.23,1.35,4.32,2.02,6.29,2.02,3.29,0,6.25-1.93,8.91-5.78,2.65-3.86,3.98-8.62,3.98-14.28,0-7.43-2.33-13.66-7.01-18.71s-10.34-7.57-17.02-7.57c-5.15,0-9.42,1.51-12.81,4.52-3.39,3.01-5.08,6.67-5.08,10.96,0,2.35.65,4.27,1.94,5.74,1.29,1.47,2.92,2.21,4.89,2.21,3.36,0,5.65-2.2,6.87-6.6l1.01.23Z"/>
  <path class="st2" d="M11.41,55.58c-.36.48-1.06.48-1.44.05l-1.43-3.45c-.25-.6-.76-1.04-1.35-1.28l-3.33-1.37c-.42-.38-.42-1.03,0-1.41l3.37-1.39c.57-.23,1.07-.68,1.31-1.26l1.43-3.46c.38-.43,1.03-.43,1.42,0l1.37,3.32c.29.7.81,1.17,1.5,1.46l3.02,1.24c.31.13.51.42.53.7s-.05.7-.36.83l-3.37,1.4c-.62.26-1.07.76-1.32,1.37l-1.35,3.27Z"/>
  <path class="st1" d="M54.12,13.94c-.3.4-.88.4-1.19.03l-1.09-2.67c-.24-.6-.65-1-1.24-1.25l-2.69-1.11c-.33-.33-.34-.85,0-1.16l2.81-1.16c.55-.23.91-.67,1.13-1.2l1-2.44c.1-.25.3-.44.55-.47.22-.03.61.01.71.27l1.19,2.84c.21.51.66.85,1.16,1.06l2.45,1.01c.27.11.45.32.48.59.02.22-.04.59-.29.69l-2.73,1.13c-.52.22-.91.63-1.12,1.15l-1.11,2.69Z"/>
  <path class="st1" d="M62.93,71.87c-.71.86-2.01.83-2.68-.01l-1.95-4.99c-.17-.44-.47-.76-.92-.94l-5.05-1.99c-.81-.71-.81-1.94,0-2.65l5.14-2.02c.3-.12.64-.43.76-.73l2.03-5.15c.67-.85,1.95-.85,2.67-.05l1.96,4.99c.14.37.43.78.8.92l4.73,1.86c.57.23.98.74,1.03,1.25s-.07,1.36-.62,1.58l-5.22,2.08c-.33.13-.6.57-.72.88l-1.94,4.96Z"/>
</svg>